<svg height="1024" viewBox="0 0 1024 1024" width="1024" xmlns="http://www.w3.org/2000/svg">
<path d="M512 0C229.232 0 0 229.232 0 512c0 226.704 148.192 418.912 353.168 487.584 25.84 4.784 35.344-11.216 35.344-24.896 0-12.272-.464-52.768-.704-95.76-129.456 28.144-156.816-54.944-156.816-54.944-21.504-54.592-52.48-69.152-52.48-69.152-42.912-29.328 3.248-28.736 3.248-28.736 47.472 3.344 72.464 48.688 72.464 48.688 42.16 72.256 110.592 51.392 137.552 39.296 4.272-30.528 16.496-51.392 30.016-63.168-104.832-11.936-215.056-52.416-215.056-233.248 0-51.52 18.4-93.632 48.64-126.72-4.896-11.904-21.072-59.904 4.592-124.8 0 0 39.648-12.688 129.856 48.416 37.664-10.464 78.016-15.712 118.144-15.888 40.096.176 80.448 5.424 118.144 15.888 90.176-61.104 129.792-48.416 129.792-48.416 25.696 64.896 9.52 112.896 4.624 124.8 30.272 33.088 48.608 75.2 48.608 126.72 0 181.248-110.368 221.216-215.424 232.896 16.928 14.592 32.032 43.408 32.032 87.456 0 63.168-.576 114.08-.576 129.568 0 13.744 9.312 29.856 35.568 24.832C875.968 930.816 1024 738.656 1024 512 1024 229.232 794.768 0 512 0z" fill="#000"/>
<path d="M194.336 736.096c-1.136 2.576-5.184 3.344-8.864 1.584-3.744-1.696-5.84-5.216-4.64-7.792 1.104-2.64 5.152-3.376 8.896-1.616 3.744 1.696 5.872 5.248 4.608 7.824zm-6.368-4.736zM214.656 759.488c-2.464 2.272-7.296 1.216-10.592-2.4-3.424-3.616-4.064-8.448-1.568-10.752 2.528-2.272 7.232-1.216 10.656 2.4 3.424 3.648 4.096 8.48 1.504 10.752zm-4.928-5.28zM234.464 787.712c-3.168 2.192-8.352.144-11.552-4.464-3.168-4.608-3.168-10.144.032-12.336 3.2-2.192 8.32-.112 11.552 4.528 3.136 4.672 3.136 10.176-.032 12.272zm0 0zM261.28 814.592c-2.832 3.104-8.864 2.272-13.28-1.888-4.544-4.032-5.808-9.792-2.976-12.896 2.864-3.104 8.928-2.24 13.344 1.888 4.512 4.032 5.84 9.824 2.912 12.896zm0 0zM296.416 829.792c-1.248 4.032-7.008 5.856-12.8 4.096-5.792-1.792-9.568-6.592-8.384-10.656 1.216-4.064 6.976-5.92 12.8-4.064 5.792 1.76 9.568 6.56 8.384 10.624zm0 0zM335.36 835.168c.144 4.224-4.768 7.744-10.88 7.872-6.144.16-11.136-3.296-11.2-7.456 0-4.288 4.8-7.744 10.912-7.904 6.112-.16 11.136 3.264 11.168 7.488zm0 0zM373.024 831.808c.736 4.128-3.488 8.368-9.568 9.504-6.016 1.104-11.584-1.456-12.352-5.552-.736-4.224 3.552-8.4 9.536-9.536 6.08-1.072 11.616 1.424 12.384 5.584zm0 0z" fill="#fff"/>
</svg>
